<?xml version="1.0" encoding="UTF-8" standalone="no"?>
<svg
   xmlns:dc="http://purl.org/dc/elements/1.1/"
   xmlns:cc="http://creativecommons.org/ns#"
   xmlns:rdf="http://www.w3.org/1999/02/22-rdf-syntax-ns#"
   xmlns:svg="http://www.w3.org/2000/svg"
   xmlns="http://www.w3.org/2000/svg"
   xmlns:xlink="http://www.w3.org/1999/xlink"
   xmlns:sodipodi="http://sodipodi.sourceforge.net/DTD/sodipodi-0.dtd"
   xmlns:inkscape="http://www.inkscape.org/namespaces/inkscape"
   version="1.1"
   preserveAspectRatio="none"
   id="svg3863"
   sodipodi:docname="404.svg"
   width="79.805"
   height="82.104095"
   inkscape:version="0.92.3 (2405546, 2018-03-11)">
  <metadata
     id="metadata3867">
    <rdf:RDF>
      <cc:Work
         rdf:about="">
        <dc:format>image/svg+xml</dc:format>
        <dc:type
           rdf:resource="http://purl.org/dc/dcmitype/StillImage" />
        <dc:title></dc:title>
      </cc:Work>
    </rdf:RDF>
  </metadata>
  <sodipodi:namedview
     pagecolor="#ffffff"
     bordercolor="#666666"
     borderopacity="1"
     objecttolerance="10"
     gridtolerance="10"
     guidetolerance="10"
     inkscape:pageopacity="0"
     inkscape:pageshadow="2"
     inkscape:window-width="1600"
     inkscape:window-height="837"
     id="namedview3865"
     showgrid="false"
     showborder="true"
     inkscape:showpageshadow="true"
     fit-margin-top="0"
     fit-margin-left="0"
     fit-margin-right="0"
     fit-margin-bottom="0"
     inkscape:zoom="6.7"
     inkscape:cx="37.6"
     inkscape:cy="28.566844"
     inkscape:window-x="-8"
     inkscape:window-y="-8"
     inkscape:window-maximized="1"
     inkscape:current-layer="svg3863" />
  <defs
     id="defs3821">
    <g
       id="j">
      <path
         d="m 82.4,24.85 q 1.75,-3.5 0.55,-6.25 -0.75,-1.8 -2.65,-2.95 -2.5,-1.5 -6.8,-1.75 -3.15,-0.25 -7.15,0.3 -4,0.45 -8.55,1.55 -1.55,-2.4 -3.9,-4.1 -2.25,-1.65 -5,-2.5 -5.7,-1.75 -11.2,0.6 -5.5,2.4 -8.2,7.75 -1.25,2.55 -1.6,5.3 -0.35,2.85 0.3,5.65 -3.95,2.55 -7.05,5.1 -3.1,2.55 -5.2,5 -2.75,3.25 -3.35,6.15 -0.5,2.15 0.25,3.95 1.2,2.75 4.95,3.9 3.75,1.2 9.85,0.65 3.6,-0.3 7.7,-1.15 2.25,1.5 4.7,2.45 2.55,0.95 5.2,1.3 2.9,0.35 5.8,-0.1 2.95,-0.4 5.65,-1.6 2.7,-1.15 5.05,-2.95 2.3,-1.85 4.1,-4.2 1.55,-2.15 2.6,-4.6 1.05,-2.45 1.5,-5.15 3.5,-2.4 6.2,-4.8 4.5,-4 6.25,-7.55 M 74.05,16.9 q 2.55,0.25 4.2,1 1.5,0.75 1.95,1.85 0.75,1.7 -0.85,4.5 -1.6,2.75 -5.2,5.95 -2.7,2.45 -6.3,4.85 -0.15,0.1 -0.2,0.1 -6.85,4.6 -15.5,8.3 -8.65,3.7 -16.7,5.5 L 35.25,49 q -4.2,0.95 -7.9,1.25 -4.8,0.4 -7.9,-0.35 -3.1,-0.7 -3.85,-2.4 -0.45,-1.1 0.05,-2.75 0.55,-1.7 2.15,-3.7 3.6,-4.65 11.35,-9.6 l 2.05,4.7 q 0.55,1.3 1.8,2 1.25,0.7 2.7,0.5 6.65,-0.95 12.85,-3.65 6.2,-2.65 11.45,-6.8 1.15,-0.9 1.5,-2.3 0.35,-1.4 -0.2,-2.7 l -2.05,-4.7 q 8.95,-2.15 14.8,-1.6 m -17.6,2.65 2.1,4.85 q 0.15,0.4 0.1,0.8 -0.15,0.4 -0.5,0.65 -4.95,3.95 -10.8,6.45 -5.85,2.5 -12.1,3.4 -0.45,0.05 -0.8,-0.15 -0.35,-0.2 -0.5,-0.6 L 31.85,30.1 H 31.8 q -1.05,-2.5 -1.05,-5.2 0,-2.6 0.95,-5.05 1,-2.45 2.8,-4.35 1.85,-1.9 4.35,-3 2.5,-1.05 5.25,-1.1 2.6,0 5,1 2.45,0.95 4.35,2.75 1.95,1.9 3,4.4 m 9.9,20 Q 65,43.5 62.2,46.6 59.4,49.7 55.55,51.35 51.7,53 47.5,52.95 43.3,52.85 39.55,51 q 6.7,-1.8 13.75,-4.85 7.05,-3 13.05,-6.6 z"
         id="path3791"
         inkscape:connector-curvature="0"
         style="fill:currentColor;stroke:none" />
    </g>
    <g
       id="i">
      <path
         d="m 51.8,38.9 q -0.25,-0.55 -0.8,-0.8 -0.6,-0.2 -1.15,0 -0.55,0.25 -0.75,0.85 -0.25,0.55 0,1.1 0.25,0.6 0.8,0.85 0.6,0.2 1.15,-0.05 0.55,-0.2 0.75,-0.8 0.25,-0.55 0,-1.15 z"
         id="path3794"
         inkscape:connector-curvature="0"
         style="fill:currentColor;stroke:none" />
    </g>
    <g
       id="h">
      <path
         d="m 21.85,44.15 q 0.55,0.25 1.1,0 0.55,-0.25 0.8,-0.8 0.2,-0.65 -0.05,-1.2 -0.25,-0.55 -0.8,-0.75 -0.55,-0.25 -1.1,0 -0.55,0.25 -0.8,0.8 -0.25,0.6 0,1.15 0.25,0.6 0.85,0.8 z"
         id="path3797"
         inkscape:connector-curvature="0"
         style="fill:#000000;stroke:none" />
    </g>
    <g
       id="g">
      <path
         d="m 72.75,22.8 q 0.55,-0.25 0.8,-0.8 0.2,-0.6 -0.05,-1.2 -0.25,-0.55 -0.8,-0.75 -0.55,-0.25 -1.1,0 -0.6,0.25 -0.8,0.8 -0.3,0.6 -0.05,1.15 0.25,0.6 0.9,0.8 0.5,0.25 1.1,0 z"
         id="path3800"
         inkscape:connector-curvature="0"
         style="fill:currentColor;stroke:none" />
    </g>
    <g
       id="f">
      <path
         d="m 65.9,31.1 q -0.2,-0.55 -0.8,-0.75 -0.55,-0.25 -1.1,0 -0.55,0.25 -0.85,0.8 -0.2,0.6 0,1.15 0.25,0.6 0.85,0.75 0.55,0.3 1.15,0.05 0.55,-0.25 0.8,-0.85 0.2,-0.6 -0.05,-1.15 z"
         id="path3803"
         inkscape:connector-curvature="0"
         style="fill:currentColor;stroke:none" />
    </g>
    <g
       id="e">
      <path
         d="M 36.4,43.75 Q 36.2,43.2 35.6,43 q -0.55,-0.25 -1.1,0 -0.55,0.25 -0.8,0.8 -0.2,0.6 0,1.15 0.25,0.6 0.85,0.75 0.55,0.3 1.1,0.05 0.6,-0.25 0.8,-0.85 0.2,-0.55 -0.05,-1.15 z"
         id="path3806"
         inkscape:connector-curvature="0"
         style="fill:currentColor;stroke:none" />
    </g>
    <g
       id="d">
      <path
         d="m 45.25,13.95 q -0.6,-0.1 -1.1,0.3 -0.5,0.35 -0.55,0.95 -0.1,0.65 0.25,1.1 0.35,0.5 0.95,0.6 1.75,0.25 3.25,1.3 1.45,1 2.3,2.6 0.15,0.35 0.45,0.55 0.3,0.2 0.65,0.25 0.5,0.05 0.9,-0.15 0.55,-0.25 0.7,-0.9 0.2,-0.55 -0.1,-1.1 Q 51.8,17.2 49.8,15.8 47.7,14.3 45.25,13.95 Z"
         id="path3809"
         inkscape:connector-curvature="0"
         style="fill:currentColor;stroke:none" />
    </g>
    <g
       id="c">
      <path
         d="m 41.05,56.95 q -0.45,0.4 -0.4,1.05 l 1.45,30.65 q 0.05,0.65 0.5,1.05 0.5,0.4 1.1,0.35 0.25,0 0.5,-0.1 0.45,-0.15 0.65,-0.55 0.3,-0.4 0.3,-0.9 l -1.5,-30.65 q -0.05,-0.6 -0.5,-1.05 -0.5,-0.4 -1.05,-0.35 -0.65,0 -1.05,0.5 z"
         id="path3812"
         inkscape:connector-curvature="0"
         style="fill:currentColor;stroke:none" />
    </g>
    <g
       id="b">
      <path
         d="m 92.2,68.45 q 0.05,-0.6 -0.4,-1.1 L 70.6,45.15 q -0.45,-0.45 -1.05,-0.45 -0.6,0 -1.05,0.4 -0.45,0.45 -0.45,1.05 -0.05,0.65 0.4,1.05 l 21.2,22.2 q 0.3,0.35 0.8,0.45 0.45,0.1 0.85,-0.1 0.25,-0.1 0.45,-0.3 0.45,-0.4 0.45,-1 z"
         id="path3815"
         inkscape:connector-curvature="0"
         style="fill:currentColor;stroke:none" />
    </g>
    <g
       id="a">
      <path
         d="m 61.95,60.55 q -0.25,-0.6 -0.8,-0.8 -0.6,-0.2 -1.15,0.05 -0.6,0.3 -0.8,0.85 -0.2,0.55 0.05,1.15 L 72.2,89.6 q 0.2,0.45 0.6,0.65 0.45,0.3 0.9,0.25 0.25,0 0.5,-0.15 0.55,-0.25 0.75,-0.85 0.2,-0.6 0,-1.1 z"
         id="path3818"
         inkscape:connector-curvature="0"
         style="fill:currentColor;stroke:none" />
    </g>
  </defs>
  <g
     id="g3825"
     transform="translate(-12.4,-8.4030488)">
    <use
       xlink:href="#j"
       id="use3823"
       x="0"
       y="0"
       width="100%"
       height="100%" />
  </g>
  <g
     id="g3829"
     transform="translate(-12.4,-8.4030488)">
    <use
       xlink:href="#i"
       id="use3827"
       x="0"
       y="0"
       width="100%"
       height="100%" />
  </g>
  <g
     id="g3833"
     transform="translate(-12.4,-8.4030488)">
    <use
       xlink:href="#h"
       id="use3831"
       x="0"
       y="0"
       width="100%"
       height="100%" />
  </g>
  <g
     id="g3837"
     transform="translate(-12.4,-8.4030488)">
    <use
       xlink:href="#g"
       id="use3835"
       x="0"
       y="0"
       width="100%"
       height="100%" />
  </g>
  <g
     id="g3841"
     transform="translate(-12.4,-8.4030488)">
    <use
       xlink:href="#f"
       id="use3839"
       x="0"
       y="0"
       width="100%"
       height="100%" />
  </g>
  <g
     id="g3845"
     transform="translate(-12.4,-8.4030488)">
    <use
       xlink:href="#e"
       id="use3843"
       x="0"
       y="0"
       width="100%"
       height="100%" />
  </g>
  <g
     id="g3849"
     transform="translate(-12.4,-8.4030488)">
    <use
       xlink:href="#d"
       id="use3847"
       x="0"
       y="0"
       width="100%"
       height="100%" />
  </g>
  <g
     id="g3853"
     transform="translate(-12.4,-8.4030488)">
    <use
       xlink:href="#c"
       id="use3851"
       x="0"
       y="0"
       width="100%"
       height="100%" />
  </g>
  <g
     id="g3857"
     transform="translate(-12.4,-8.4030488)">
    <use
       xlink:href="#b"
       id="use3855"
       x="0"
       y="0"
       width="100%"
       height="100%" />
  </g>
  <g
     id="g3861"
     transform="translate(-12.4,-8.4030488)">
    <use
       xlink:href="#a"
       id="use3859"
       x="0"
       y="0"
       width="100%"
       height="100%" />
  </g>
</svg>
